<?xml version="1.0" encoding="utf-8" standalone="no"?>
<!DOCTYPE svg PUBLIC "-//W3C//DTD SVG 1.1//EN" 
"http://www.w3.org/Graphics/SVG/1.1/DTD/svg11.dtd">
<svg width="516px" height="470px" viewBox="0 0 516 470"
xmlns="http://www.w3.org/2000/svg" version="1.1">
<rect x="0" y="0" width="516" height="470" fill="none" stroke="rgb(192,192,192)" stroke-width="1"/>
<text x="401" y="466" font-family="Helvetica" font-size="12" xml:space="preserve"  fill="rgb(0,0,0)">EU371738.1</text>
<text x="399" y="437" font-family="Helvetica" font-size="12" xml:space="preserve"  fill="rgb(0,0,0)">AB539128.1</text>
<text x="431" y="408" font-family="Helvetica" font-size="12" xml:space="preserve"  fill="rgb(0,0,0)">AB491590.1</text>
<text x="380" y="380" font-family="Helvetica" font-size="12" xml:space="preserve"  fill="rgb(0,0,0)">AY424666.1</text>
<text x="396" y="351" font-family="Helvetica" font-size="12" xml:space="preserve"  fill="rgb(0,0,0)">AM748311.1</text>
<text x="396" y="322" font-family="Helvetica" font-size="12" xml:space="preserve"  fill="rgb(0,0,0)">AB292070.1</text>
<text x="281" y="293" font-family="Helvetica" font-size="12" xml:space="preserve"  fill="rgb(0,0,0)">AY424657.1</text>
<text x="241" y="264" font-family="Helvetica" font-size="12" xml:space="preserve"  fill="rgb(0,0,0)">AY424655.1</text>
<text x="241" y="235" font-family="Helvetica" font-size="12" xml:space="preserve"  fill="rgb(0,0,0)">KY608941.1</text>
<text x="209" y="206" font-family="Helvetica" font-size="12" xml:space="preserve"  fill="rgb(0,0,0)">AY424658.1</text>
<text x="209" y="177" font-family="Helvetica" font-size="12" xml:space="preserve"  fill="rgb(0,0,0)">AY424663.1</text>
<text x="233" y="148" font-family="Helvetica" font-size="12" xml:space="preserve"  fill="rgb(0,0,0)">AY424650.1</text>
<text x="241" y="119" font-family="Helvetica" font-size="12" xml:space="preserve"  fill="rgb(0,0,0)">AY424649.1</text>
<text x="241" y="90" font-family="Helvetica" font-size="12" xml:space="preserve"  fill="rgb(0,0,0)">AY424651.1</text>
<text x="225" y="62" font-family="Helvetica" font-size="12" xml:space="preserve"  fill="rgb(0,0,0)">AY429652.1</text>
<text x="225" y="33" font-family="Helvetica" font-size="12" xml:space="preserve"  fill="rgb(0,0,0)">AY429653.1</text>
<line x1="279" y1="433" x2="397" y2="433" style="stroke:rgb(0,0,0);stroke-width:1;stroke-linecap:butt" />
<line x1="279" y1="404" x2="429" y2="404" style="stroke:rgb(0,0,0);stroke-width:1;stroke-linecap:butt" />
<line x1="279" y1="433" x2="279" y2="404" style="stroke:rgb(0,0,0);stroke-width:1;stroke-linecap:butt" />
<line x1="346" y1="375" x2="378" y2="375" style="stroke:rgb(0,0,0);stroke-width:1;stroke-linecap:butt" />
<line x1="346" y1="346" x2="394" y2="346" style="stroke:rgb(0,0,0);stroke-width:1;stroke-linecap:butt" />
<line x1="346" y1="375" x2="346" y2="346" style="stroke:rgb(0,0,0);stroke-width:1;stroke-linecap:butt" />
<line x1="306" y1="360" x2="346" y2="360" style="stroke:rgb(0,0,0);stroke-width:1;stroke-linecap:butt" />
<line x1="306" y1="317" x2="394" y2="317" style="stroke:rgb(0,0,0);stroke-width:1;stroke-linecap:butt" />
<line x1="306" y1="360" x2="306" y2="317" style="stroke:rgb(0,0,0);stroke-width:1;stroke-linecap:butt" />
<line x1="91" y1="418" x2="279" y2="418" style="stroke:rgb(0,0,0);stroke-width:1;stroke-linecap:butt" />
<line x1="91" y1="339" x2="306" y2="339" style="stroke:rgb(0,0,0);stroke-width:1;stroke-linecap:butt" />
<line x1="91" y1="418" x2="91" y2="339" style="stroke:rgb(0,0,0);stroke-width:1;stroke-linecap:butt" />
<line x1="231" y1="259" x2="239" y2="259" style="stroke:rgb(0,0,0);stroke-width:1;stroke-linecap:butt" />
<line x1="231" y1="230" x2="239" y2="230" style="stroke:rgb(0,0,0);stroke-width:1;stroke-linecap:butt" />
<line x1="231" y1="259" x2="231" y2="230" style="stroke:rgb(0,0,0);stroke-width:1;stroke-linecap:butt" />
<line x1="223" y1="288" x2="279" y2="288" style="stroke:rgb(0,0,0);stroke-width:1;stroke-linecap:butt" />
<line x1="223" y1="245" x2="231" y2="245" style="stroke:rgb(0,0,0);stroke-width:1;stroke-linecap:butt" />
<line x1="223" y1="288" x2="223" y2="245" style="stroke:rgb(0,0,0);stroke-width:1;stroke-linecap:butt" />
<line x1="199" y1="201" x2="207" y2="201" style="stroke:rgb(0,0,0);stroke-width:1;stroke-linecap:butt" />
<line x1="199" y1="173" x2="207" y2="173" style="stroke:rgb(0,0,0);stroke-width:1;stroke-linecap:butt" />
<line x1="199" y1="201" x2="199" y2="173" style="stroke:rgb(0,0,0);stroke-width:1;stroke-linecap:butt" />
<line x1="178" y1="266" x2="223" y2="266" style="stroke:rgb(0,0,0);stroke-width:1;stroke-linecap:butt" />
<line x1="178" y1="187" x2="199" y2="187" style="stroke:rgb(0,0,0);stroke-width:1;stroke-linecap:butt" />
<line x1="178" y1="266" x2="178" y2="187" style="stroke:rgb(0,0,0);stroke-width:1;stroke-linecap:butt" />
<line x1="223" y1="144" x2="231" y2="144" style="stroke:rgb(0,0,0);stroke-width:1;stroke-linecap:butt" />
<line x1="223" y1="115" x2="239" y2="115" style="stroke:rgb(0,0,0);stroke-width:1;stroke-linecap:butt" />
<line x1="223" y1="144" x2="223" y2="115" style="stroke:rgb(0,0,0);stroke-width:1;stroke-linecap:butt" />
<line x1="223" y1="129" x2="223" y2="129" style="stroke:rgb(0,0,0);stroke-width:1;stroke-linecap:butt" />
<line x1="223" y1="86" x2="239" y2="86" style="stroke:rgb(0,0,0);stroke-width:1;stroke-linecap:butt" />
<line x1="223" y1="129" x2="223" y2="86" style="stroke:rgb(0,0,0);stroke-width:1;stroke-linecap:butt" />
<line x1="223" y1="107" x2="223" y2="107" style="stroke:rgb(0,0,0);stroke-width:1;stroke-linecap:butt" />
<line x1="223" y1="57" x2="223" y2="57" style="stroke:rgb(0,0,0);stroke-width:1;stroke-linecap:butt" />
<line x1="223" y1="107" x2="223" y2="57" style="stroke:rgb(0,0,0);stroke-width:1;stroke-linecap:butt" />
<line x1="223" y1="82" x2="223" y2="82" style="stroke:rgb(0,0,0);stroke-width:1;stroke-linecap:butt" />
<line x1="223" y1="28" x2="223" y2="28" style="stroke:rgb(0,0,0);stroke-width:1;stroke-linecap:butt" />
<line x1="223" y1="82" x2="223" y2="28" style="stroke:rgb(0,0,0);stroke-width:1;stroke-linecap:butt" />
<line x1="126" y1="227" x2="178" y2="227" style="stroke:rgb(0,0,0);stroke-width:1;stroke-linecap:butt" />
<line x1="126" y1="55" x2="223" y2="55" style="stroke:rgb(0,0,0);stroke-width:1;stroke-linecap:butt" />
<line x1="126" y1="227" x2="126" y2="55" style="stroke:rgb(0,0,0);stroke-width:1;stroke-linecap:butt" />
<line x1="31" y1="378" x2="91" y2="378" style="stroke:rgb(0,0,0);stroke-width:1;stroke-linecap:butt" />
<line x1="31" y1="141" x2="126" y2="141" style="stroke:rgb(0,0,0);stroke-width:1;stroke-linecap:butt" />
<line x1="31" y1="378" x2="31" y2="141" style="stroke:rgb(0,0,0);stroke-width:1;stroke-linecap:butt" />
<line x1="11" y1="462" x2="398" y2="462" style="stroke:rgb(0,0,0);stroke-width:1;stroke-linecap:butt" />
<line x1="11" y1="260" x2="31" y2="260" style="stroke:rgb(0,0,0);stroke-width:1;stroke-linecap:butt" />
<line x1="11" y1="462" x2="11" y2="260" style="stroke:rgb(0,0,0);stroke-width:1;stroke-linecap:butt" />
<text x="5" y="15" font-family="Helvetica" font-size="12" xml:space="preserve"  fill="rgb(0,0,0)">Dnapars, bootstrap with 100 replic., 225 steps, 618 sites (98 informative)</text>
<line x1="441" y1="13" x2="490" y2="13" style="stroke:rgb(0,0,0);stroke-width:1;stroke-linecap:butt" />
<line x1="441" y1="17" x2="441" y2="9" style="stroke:rgb(0,0,0);stroke-width:1;stroke-linecap:butt" />
<line x1="490" y1="17" x2="490" y2="9" style="stroke:rgb(0,0,0);stroke-width:1;stroke-linecap:butt" />
<text x="452" y="11" font-family="Times" font-size="12" xml:space="preserve"  fill="rgb(0,0,0)">0.01</text>
</svg>
